<svg width="9534" height="8397" viewBox="0 0 9534 8397" fill="none" xmlns="http://www.w3.org/2000/svg">
<rect x="2" y="881" width="234" height="57" fill="black" stroke="white" stroke-width="4"/>
<path d="M32.642 920V898.182H40.2699C41.7898 898.182 43.0433 898.445 44.0305 898.97C45.0178 899.489 45.7528 900.188 46.2358 901.069C46.7188 901.942 46.9602 902.912 46.9602 903.977C46.9602 904.915 46.7933 905.689 46.4595 906.3C46.1328 906.911 45.6996 907.393 45.1598 907.749C44.6271 908.104 44.0483 908.366 43.4233 908.537V908.75C44.0909 908.793 44.7621 909.027 45.4368 909.453C46.1115 909.879 46.6761 910.49 47.1307 911.286C47.5852 912.081 47.8125 913.054 47.8125 914.205C47.8125 915.298 47.5639 916.282 47.0668 917.156C46.5696 918.029 45.7848 918.722 44.7124 919.233C43.6399 919.744 42.2443 920 40.5256 920H32.642ZM35.2841 917.656H40.5256C42.2514 917.656 43.4766 917.322 44.201 916.655C44.9325 915.98 45.2983 915.163 45.2983 914.205C45.2983 913.466 45.1101 912.784 44.7337 912.159C44.3572 911.527 43.821 911.023 43.125 910.646C42.429 910.263 41.6051 910.071 40.6534 910.071H35.2841V917.656ZM35.2841 907.77H40.1847C40.9801 907.77 41.6974 907.614 42.3366 907.301C42.983 906.989 43.4943 906.548 43.8707 905.98C44.2543 905.412 44.446 904.744 44.446 903.977C44.446 903.018 44.1122 902.205 43.4446 901.538C42.777 900.863 41.7188 900.526 40.2699 900.526H35.2841V907.77ZM62.1254 913.31V903.636H64.6396V920H62.1254V917.23H61.9549C61.5714 918.061 60.9748 918.768 60.1651 919.35C59.3555 919.925 58.3327 920.213 57.0969 920.213C56.0742 920.213 55.1651 919.989 54.3697 919.542C53.5742 919.087 52.9492 918.406 52.4947 917.496C52.0401 916.58 51.8129 915.426 51.8129 914.034V903.636H54.3271V913.864C54.3271 915.057 54.6609 916.009 55.3285 916.719C56.0032 917.429 56.8626 917.784 57.9066 917.784C58.5316 917.784 59.1673 917.624 59.8136 917.305C60.467 916.985 61.0138 916.495 61.4542 915.835C61.9016 915.174 62.1254 914.332 62.1254 913.31ZM80.8354 907.301L78.5769 907.94C78.4348 907.564 78.2253 907.198 77.9483 906.843C77.6784 906.481 77.3091 906.183 76.8404 905.948C76.3716 905.714 75.7715 905.597 75.04 905.597C74.0385 905.597 73.204 905.827 72.5364 906.289C71.8759 906.744 71.5456 907.322 71.5456 908.026C71.5456 908.651 71.7729 909.144 72.2275 909.506C72.682 909.869 73.3922 910.17 74.3581 910.412L76.7871 911.009C78.2502 911.364 79.3404 911.907 80.0577 912.638C80.775 913.363 81.1337 914.297 81.1337 915.44C81.1337 916.378 80.8638 917.216 80.324 917.955C79.7914 918.693 79.0456 919.276 78.0868 919.702C77.128 920.128 76.013 920.341 74.7417 920.341C73.0726 920.341 71.6912 919.979 70.5975 919.254C69.5037 918.53 68.8113 917.472 68.5201 916.08L70.9064 915.483C71.1337 916.364 71.5634 917.024 72.1955 917.464C72.8347 917.905 73.6692 918.125 74.699 918.125C75.8709 918.125 76.8013 917.876 77.4902 917.379C78.1863 916.875 78.5343 916.271 78.5343 915.568C78.5343 915 78.3354 914.524 77.9377 914.141C77.54 913.75 76.9292 913.459 76.1053 913.267L73.378 912.628C71.8794 912.273 70.7786 911.722 70.0755 910.977C69.3794 910.224 69.0314 909.283 69.0314 908.153C69.0314 907.23 69.2907 906.413 69.8091 905.703C70.3347 904.993 71.0485 904.435 71.9505 904.031C72.8596 903.626 73.8894 903.423 75.04 903.423C76.6593 903.423 77.9306 903.778 78.8539 904.489C79.7843 905.199 80.4448 906.136 80.8354 907.301ZM105.629 903.636C105.501 902.557 104.982 901.719 104.073 901.122C103.164 900.526 102.049 900.227 100.728 900.227C99.7621 900.227 98.9169 900.384 98.1925 900.696C97.4751 901.009 96.9141 901.438 96.5092 901.985C96.1115 902.532 95.9126 903.153 95.9126 903.849C95.9126 904.432 96.0511 904.933 96.3281 905.352C96.6122 905.763 96.9744 906.108 97.4148 906.385C97.8551 906.655 98.3168 906.879 98.7997 907.056C99.2827 907.227 99.7266 907.365 100.131 907.472L102.347 908.068C102.915 908.217 103.548 908.423 104.244 908.686C104.947 908.949 105.618 909.308 106.257 909.762C106.903 910.21 107.436 910.785 107.855 911.488C108.274 912.191 108.484 913.054 108.484 914.077C108.484 915.256 108.175 916.321 107.557 917.273C106.946 918.224 106.051 918.981 104.872 919.542C103.7 920.103 102.276 920.384 100.6 920.384C99.0376 920.384 97.6847 920.131 96.5412 919.627C95.4048 919.123 94.5099 918.42 93.8565 917.518C93.2102 916.616 92.8445 915.568 92.7592 914.375H95.4865C95.5575 915.199 95.8345 915.881 96.3175 916.42C96.8075 916.953 97.4254 917.351 98.1712 917.614C98.924 917.869 99.7337 917.997 100.6 917.997C101.609 917.997 102.514 917.834 103.317 917.507C104.119 917.173 104.755 916.712 105.224 916.122C105.692 915.526 105.927 914.83 105.927 914.034C105.927 913.31 105.724 912.72 105.32 912.266C104.915 911.811 104.382 911.442 103.722 911.158C103.061 910.874 102.347 910.625 101.58 910.412L98.8956 909.645C97.1911 909.155 95.8416 908.455 94.8473 907.546C93.853 906.637 93.3558 905.447 93.3558 903.977C93.3558 902.756 93.6861 901.69 94.3466 900.781C95.0142 899.865 95.9091 899.155 97.0312 898.651C98.1605 898.139 99.4212 897.884 100.813 897.884C102.219 897.884 103.469 898.136 104.563 898.64C105.657 899.137 106.523 899.819 107.163 900.685C107.809 901.552 108.15 902.536 108.185 903.636H105.629ZM122.799 913.31V903.636H125.313V920H122.799V917.23H122.629C122.245 918.061 121.649 918.768 120.839 919.35C120.029 919.925 119.007 920.213 117.771 920.213C116.748 920.213 115.839 919.989 115.044 919.542C114.248 919.087 113.623 918.406 113.169 917.496C112.714 916.58 112.487 915.426 112.487 914.034V903.636H115.001V913.864C115.001 915.057 115.335 916.009 116.002 916.719C116.677 917.429 117.536 917.784 118.58 917.784C119.205 917.784 119.841 917.624 120.487 917.305C121.141 916.985 121.688 916.495 122.128 915.835C122.575 915.174 122.799 914.332 122.799 913.31ZM129.918 926.136V903.636H132.347V906.236H132.646C132.83 905.952 133.086 905.589 133.413 905.149C133.746 904.702 134.222 904.304 134.84 903.956C135.465 903.601 136.31 903.423 137.376 903.423C138.754 903.423 139.968 903.768 141.019 904.457C142.07 905.146 142.891 906.122 143.48 907.386C144.07 908.651 144.364 910.142 144.364 911.861C144.364 913.594 144.07 915.096 143.48 916.367C142.891 917.631 142.074 918.612 141.03 919.308C139.986 919.996 138.782 920.341 137.418 920.341C136.367 920.341 135.526 920.167 134.893 919.819C134.261 919.464 133.775 919.062 133.434 918.615C133.093 918.161 132.83 917.784 132.646 917.486H132.433V926.136H129.918ZM132.39 911.818C132.39 913.054 132.571 914.144 132.933 915.089C133.295 916.026 133.825 916.761 134.521 917.294C135.217 917.82 136.069 918.082 137.077 918.082C138.129 918.082 139.006 917.805 139.709 917.251C140.419 916.69 140.952 915.937 141.307 914.993C141.669 914.041 141.85 912.983 141.85 911.818C141.85 910.668 141.673 909.631 141.317 908.707C140.969 907.777 140.44 907.042 139.73 906.502C139.027 905.955 138.143 905.682 137.077 905.682C136.055 905.682 135.195 905.941 134.499 906.46C133.803 906.971 133.278 907.688 132.923 908.612C132.567 909.528 132.39 910.597 132.39 911.818ZM148.2 926.136V903.636H150.629V906.236H150.927C151.112 905.952 151.367 905.589 151.694 905.149C152.028 904.702 152.504 904.304 153.121 903.956C153.746 903.601 154.592 903.423 155.657 903.423C157.035 903.423 158.249 903.768 159.3 904.457C160.352 905.146 161.172 906.122 161.761 907.386C162.351 908.651 162.646 910.142 162.646 911.861C162.646 913.594 162.351 915.096 161.761 916.367C161.172 917.631 160.355 918.612 159.311 919.308C158.267 919.996 157.063 920.341 155.7 920.341C154.648 920.341 153.807 920.167 153.175 919.819C152.543 919.464 152.056 919.062 151.715 918.615C151.374 918.161 151.112 917.784 150.927 917.486H150.714V926.136H148.2ZM150.671 911.818C150.671 913.054 150.852 914.144 151.214 915.089C151.577 916.026 152.106 916.761 152.802 917.294C153.498 917.82 154.35 918.082 155.359 918.082C156.41 918.082 157.287 917.805 157.99 917.251C158.7 916.69 159.233 915.937 159.588 914.993C159.95 914.041 160.131 912.983 160.131 911.818C160.131 910.668 159.954 909.631 159.599 908.707C159.251 907.777 158.722 907.042 158.011 906.502C157.308 905.955 156.424 905.682 155.359 905.682C154.336 905.682 153.477 905.941 152.781 906.46C152.085 906.971 151.559 907.688 151.204 908.612C150.849 909.528 150.671 910.597 150.671 911.818ZM168.995 898.182V920H166.481V898.182H168.995ZM173.6 920V903.636H176.114V920H173.6ZM174.878 900.909C174.388 900.909 173.966 900.742 173.611 900.408C173.263 900.075 173.089 899.673 173.089 899.205C173.089 898.736 173.263 898.335 173.611 898.001C173.966 897.667 174.388 897.5 174.878 897.5C175.368 897.5 175.787 897.667 176.135 898.001C176.491 898.335 176.668 898.736 176.668 899.205C176.668 899.673 176.491 900.075 176.135 900.408C175.787 900.742 175.368 900.909 174.878 900.909ZM187.58 920.341C186.003 920.341 184.643 919.993 183.5 919.297C182.363 918.594 181.486 917.614 180.868 916.357C180.257 915.092 179.952 913.622 179.952 911.946C179.952 910.27 180.257 908.793 180.868 907.514C181.486 906.229 182.346 905.227 183.446 904.51C184.554 903.786 185.847 903.423 187.324 903.423C188.176 903.423 189.018 903.565 189.849 903.849C190.68 904.134 191.436 904.595 192.118 905.234C192.8 905.866 193.343 906.705 193.748 907.749C194.153 908.793 194.355 910.078 194.355 911.605V912.67H181.742V910.497H191.799C191.799 909.574 191.614 908.75 191.245 908.026C190.882 907.301 190.364 906.729 189.689 906.31C189.022 905.891 188.233 905.682 187.324 905.682C186.323 905.682 185.456 905.93 184.725 906.428C184 906.918 183.443 907.557 183.052 908.345C182.662 909.134 182.466 909.979 182.466 910.881V912.33C182.466 913.565 182.679 914.613 183.105 915.472C183.539 916.325 184.139 916.974 184.906 917.422C185.673 917.862 186.564 918.082 187.58 918.082C188.24 918.082 188.837 917.99 189.37 917.805C189.909 917.614 190.375 917.33 190.765 916.953C191.156 916.57 191.458 916.094 191.671 915.526L194.1 916.207C193.844 917.031 193.414 917.756 192.811 918.381C192.207 918.999 191.461 919.482 190.574 919.83C189.686 920.17 188.688 920.341 187.58 920.341ZM198.18 920V903.636H200.609V906.108H200.779C201.078 905.298 201.618 904.641 202.399 904.137C203.18 903.633 204.061 903.381 205.041 903.381C205.225 903.381 205.456 903.384 205.733 903.391C206.01 903.398 206.22 903.409 206.362 903.423V905.98C206.277 905.959 206.081 905.927 205.776 905.884C205.478 905.835 205.162 905.81 204.828 905.81C204.032 905.81 203.322 905.977 202.697 906.31C202.079 906.637 201.589 907.092 201.227 907.674C200.872 908.249 200.694 908.906 200.694 909.645V920H198.18Z" fill="white"/>
<rect x="287" y="881" width="234" height="57" fill="black" stroke="white" stroke-width="4"/>
<path d="M384.199 905H381.557C381.401 904.24 381.127 903.572 380.737 902.997C380.353 902.422 379.884 901.939 379.33 901.548C378.783 901.151 378.176 900.852 377.509 900.653C376.841 900.455 376.145 900.355 375.42 900.355C374.099 900.355 372.903 900.689 371.83 901.357C370.765 902.024 369.916 903.008 369.284 904.308C368.659 905.607 368.347 907.202 368.347 909.091C368.347 910.98 368.659 912.575 369.284 913.874C369.916 915.174 370.765 916.158 371.83 916.825C372.903 917.493 374.099 917.827 375.42 917.827C376.145 917.827 376.841 917.727 377.509 917.528C378.176 917.33 378.783 917.035 379.33 916.644C379.884 916.246 380.353 915.76 380.737 915.185C381.127 914.602 381.401 913.935 381.557 913.182H384.199C384 914.297 383.638 915.295 383.112 916.175C382.587 917.056 381.933 917.805 381.152 918.423C380.371 919.034 379.494 919.499 378.521 919.819C377.555 920.138 376.521 920.298 375.42 920.298C373.56 920.298 371.905 919.844 370.456 918.935C369.007 918.026 367.867 916.733 367.036 915.057C366.205 913.381 365.79 911.392 365.79 909.091C365.79 906.79 366.205 904.801 367.036 903.125C367.867 901.449 369.007 900.156 370.456 899.247C371.905 898.338 373.56 897.884 375.42 897.884C376.521 897.884 377.555 898.043 378.521 898.363C379.494 898.683 380.371 899.151 381.152 899.769C381.933 900.38 382.587 901.126 383.112 902.006C383.638 902.88 384 903.878 384.199 905ZM390.642 898.182V920H388.127V898.182H390.642ZM401.894 920.341C400.417 920.341 399.121 919.989 398.006 919.286C396.898 918.583 396.031 917.599 395.406 916.335C394.788 915.071 394.479 913.594 394.479 911.903C394.479 910.199 394.788 908.711 395.406 907.44C396.031 906.168 396.898 905.181 398.006 904.478C399.121 903.775 400.417 903.423 401.894 903.423C403.371 903.423 404.664 903.775 405.772 904.478C406.887 905.181 407.754 906.168 408.371 907.44C408.996 908.711 409.309 910.199 409.309 911.903C409.309 913.594 408.996 915.071 408.371 916.335C407.754 917.599 406.887 918.583 405.772 919.286C404.664 919.989 403.371 920.341 401.894 920.341ZM401.894 918.082C403.016 918.082 403.94 917.795 404.664 917.219C405.388 916.644 405.925 915.888 406.273 914.95C406.621 914.013 406.795 912.997 406.795 911.903C406.795 910.81 406.621 909.79 406.273 908.846C405.925 907.901 405.388 907.138 404.664 906.555C403.94 905.973 403.016 905.682 401.894 905.682C400.772 905.682 399.849 905.973 399.124 906.555C398.4 907.138 397.864 907.901 397.516 908.846C397.168 909.79 396.994 910.81 396.994 911.903C396.994 912.997 397.168 914.013 397.516 914.95C397.864 915.888 398.4 916.644 399.124 917.219C399.849 917.795 400.772 918.082 401.894 918.082ZM419.795 920.341C418.26 920.341 416.939 919.979 415.831 919.254C414.724 918.53 413.871 917.532 413.275 916.261C412.678 914.989 412.38 913.537 412.38 911.903C412.38 910.241 412.685 908.775 413.296 907.504C413.914 906.225 414.773 905.227 415.874 904.51C416.982 903.786 418.275 903.423 419.752 903.423C420.903 903.423 421.939 903.636 422.863 904.062C423.786 904.489 424.542 905.085 425.132 905.852C425.721 906.619 426.087 907.514 426.229 908.537H423.715C423.523 907.791 423.097 907.131 422.437 906.555C421.783 905.973 420.903 905.682 419.795 905.682C418.814 905.682 417.955 905.937 417.216 906.449C416.485 906.953 415.913 907.667 415.501 908.59C415.096 909.506 414.894 910.582 414.894 911.818C414.894 913.082 415.093 914.183 415.491 915.121C415.895 916.058 416.464 916.786 417.195 917.305C417.934 917.823 418.8 918.082 419.795 918.082C420.448 918.082 421.041 917.969 421.574 917.741C422.106 917.514 422.557 917.188 422.927 916.761C423.296 916.335 423.559 915.824 423.715 915.227H426.229C426.087 916.193 425.736 917.063 425.175 917.837C424.621 918.604 423.885 919.215 422.969 919.67C422.06 920.117 421.002 920.341 419.795 920.341ZM432.248 914.034L432.206 910.923H432.717L439.876 903.636H442.987L435.359 911.349H435.146L432.248 914.034ZM429.905 920V898.182H432.419V920H429.905ZM440.302 920L433.91 911.903L435.7 910.156L443.498 920H440.302Z" fill="white"/>
<path d="M18 2V881H2V938H18V8395H9531.5V2H18Z" stroke="#00FFFF" stroke-width="4"/>
<path d="M44 25V881H2V938H44V8372H9505.5V25H44Z" stroke="#0000FF" stroke-width="4"/>
<path d="M72 51V881H2V938H72V8347H9481.5V51H72Z" stroke="#50FFAB" stroke-width="4"/>
<path d="M96 75V881H2V938H96V8321H9451.5V75H96Z" stroke="#FF2000" stroke-width="4"/>
<path d="M307 879V836.5H96" stroke="#FF2000" stroke-width="4"/>
<path d="M307 940V982.5H96" stroke="#FF2000" stroke-width="4"/>
</svg>
